# AST/ASF file generated using VICON BodyLanguage
# -----------------------------------------------
:version 1.10
:name VICON
:units
  mass 1.0
  length 0.45
  angle deg
:documentation
   .ast/.asf automatically generated from VICON data using
   VICON BodyBuilder and BodyLanguage model FoxedUp or BRILLIANT.MOD
:root
   order TX TY TZ RX RY RZ
   axis XYZ
   position 0 0 0  
   orientation 0 0 0 
:bonedata
  begin
     id 1 
     name lhipjoint
     direction 0.499407 -0.589134 0.635228 
     length 2.99786 
     axis 0 0 0  XYZ
  end
  begin
     id 2 
     name lfemur
     direction 0.34202 -0.939693 0  
     length 6.89561  
     axis 0 0 20  XYZ
    dof rx ry rz
    limits (-160.0 20.0)
           (-70.0 70.0)
           (-60.0 70.0)
  end
  begin
     id 3 
     name ltibia
     direction 0.34202 -0.939693 0   
     length 8.00494   
     axis 0 0 20   XYZ
    dof rx
    limits (-10.0 170.0)
  end
  begin
     id 4 
     name lfoot
     direction 0.0680929 -0.194353 0.978565   
     length 2.06695   
     axis -90 7.62852e-016 20   XYZ
    dof rx rz
    limits (-45.0 90.0)
           (-70.0 20.0)
  end
  begin
     id 5 
     name ltoes
     direction 1.5346e-011 -4.21731e-011 1   
     length 1.04539   
     axis -90 7.62852e-016 20   XYZ
    dof rx
    limits (-90.0 20.0)
  end
  begin
     id 6 
     name rhipjoint
     direction -0.347526 -0.63762 0.687508   
     length 2.76989  
     axis 0 0 0  XYZ 
  end
  begin
     id 7 
     name rfemur
     direction -0.34202 -0.939693 0   
     length 6.97892   
     axis 0 0 -20   XYZ
    dof rx ry rz
    limits (-160.0 20.0)
           (-70.0 70.0)
           (-70.0 60.0)
  end
  begin
     id 8 
     name rtibia
     direction -0.34202 -0.939693 0   
     length 7.77056   
     axis 0 0 -20   XYZ
    dof rx
    limits (-10.0 170.0)
 end
 begin
     id 9 
     name rfoot
     direction -0.102685 -0.282124 0.953867   
     length 2.15099  
     axis -90 -7.62852e-016 -20   XYZ
    dof rx rz
    limits (-45.0 90.0)
           (-20.0 70.0)
  end
  begin
     id 10 
     name rtoes
     direction -0.000106751 -0.00118973 0.999999   
     length 1.0765   
     axis -90 -7.62852e-016 -20   XYZ
    dof rx
    limits (-90.0 20.0)
  end
  begin
     id 11 
     name lowerback
     direction -0.0190651 0.988667 0.148909   
     length 1.90627   
     axis 0 0 0   XYZ
    dof rx ry rz
    limits (-20.0 45.0)
           (-30.0 30.0)
           (-30.0 30.0)
  end
  begin
     id 12 
     name upperback
     direction -0.0180344 0.995767 -0.0901298   
     length 1.88167   
     axis 0 0 0   XYZ
    dof rx ry rz
    limits (-20.0 45.0)
           (-30.0 30.0)
           (-30.0 30.0)
  end
  begin
     id 13 
     name thorax
     direction -0.00329861 0.986394 -0.164366   
     length 1.91528   
     axis 0 0 0   XYZ
    dof rx ry rz
    limits (-20.0 45.0)
           (-30.0 30.0)
           (-30.0 30.0)
  end
  begin
     id 14 
     name lowerneck
     direction -0.0177752 0.978637 -0.204826   
     length 2.09812   
     axis 0 0 0   XYZ
    dof rx ry rz
    limits (-20.0 45.0)
           (-30.0 30.0)
           (-30.0 30.0)
  end
  begin
     id 15 
     name upperneck
     direction 0.108032 0.994134 0.00511541   
     length 2.11937   
     axis 0 0 0   XYZ
    dof rx ry rz
    limits (-20.0 45.0)
           (-30.0 30.0)
           (-30.0 30.0)
  end
  begin
     id 16
     name head
     direction 0.0423659 0.998938 0.0181058  
     length 2.14816  
     axis 0 0 0   XYZ
    dof rx ry rz
    limits (-20.0 45.0)
           (-30.0 30.0)
           (-30.0 30.0)
  end
  begin
     id 17 
     name lclavicle
     direction 0.869509 0.396908 0.293968  
     length 4.73713  
     axis 0 0 0   XYZ
    dof ry rz
    limits (-20.0 10.0)
           (0.0 20.0)
  end
  begin
     id 18 
     name lhumerus
     direction 1 -4.49e-011 3.63829e-027   
     length 4.72096   
     axis 180 -30 -90   XYZ
    dof rx ry rz
    limits (-60.0 90.0)
           (-90.0 90.0)
           (-90.0 90.0)
  end
  begin
     id 19
     name lradius
     direction 1 -4.48932e-011 7.19196e-027   
     length 3.18148   
     axis 180 -30 -90   XYZ
    dof rx
    limits (-10.0 170.0)
  end
  begin
     id 20
     name lwrist
     direction 1 -4.48995e-011 1.85462e-026   
     length 1.59074   
     axis -1.20349e-014 90 90   XYZ
    dof ry
    limits (-180.0 0.0)
 end
  begin
     id 21 
     name lhand
     direction 1 -4.48943e-011 3.70924e-026   
     length 0.848715   
     axis -2.36681e-014 90 90   XYZ
    dof rx rz
    limits (-90.0 90.0)
           (-45.0 45.0)
  end
  begin
     id 22 
     name lfingers
     direction 1 -4.48949e-011 7.41849e-026   
     length 0.684256   
     axis -4.73363e-014 90 90   XYZ
    dof rx
    limits (0.0 90.0)
  end
  begin
     id 23
     name lthumb
     direction 0.707107 -6.35018e-011 0.707107   
     length 0.982458   
     axis -90 45 2.85299e-015   XYZ
    dof rx rz
    limits (-45.0 45.0)
           (-45.0 45.0)
  end
  begin
     id 24 
     name rclavicle
     direction -0.923214 0.372787 0.0932992   
     length 4.28107  
     axis 0 0 0   XYZ 
    dof ry rz
    limits (-10.0 20.0)
           (-20.0 0.0)
  end
  begin
     id 25 
     name rhumerus
     direction -1 -4.48968e-011 6.59881e-018  
     length 4.76918   
     axis 180 30 90   XYZ
    dof rx ry rz
    limits (-90.0 60.0)
           (-90.0 90.0)
           (-90.0 90.0)
  end
  begin
     id 26 
     name rradius
     direction -1 0.000264575 -0.000152753   
     length 3.36438   
     axis 180 30 90   XYZ
    dof rx
    limits (-10.0 170.0)
  end
  begin
     id 27 
     name rwrist
     direction -1 -4.86632e-005 -0.00030086   
     length 1.68219   
     axis -1.20349e-014 -90 -90   XYZ
    dof ry
    limits (-180.0 0.0)
  end
  begin
     id 28
     name rhand
     direction -1 -4.48915e-011 3.70924e-026   
     length 0.767694   
     axis -2.36681e-014 -90 -90   XYZ
    dof rx rz
    limits (-90.0 90.0)
           (-45.0 45.0)
  end
  begin
     id 29
     name rfingers
     direction -1 -4.49015e-011 7.41849e-026   
     length 0.618935   
     axis -4.73363e-014 -90 -90   XYZ
    dof rx
    limits (0.0 90.0)
  end
  begin
     id 30
     name rthumb
     direction -0.707107 -6.34859e-011 0.707107   
     length 0.88867   
     axis -90 -45 -2.85299e-015   XYZ
    dof rx rz
    limits (-45.0 45.0)
           (-45.0 45.0)
  end
:hierarchy
  begin
    root lhipjoint rhipjoint lowerback
    lhipjoint lfemur
    lfemur ltibia
    ltibia lfoot
    lfoot ltoes
    rhipjoint rfemur
    rfemur rtibia
    rtibia rfoot
    rfoot rtoes
    lowerback upperback
    upperback thorax
    thorax lowerneck lclavicle rclavicle
    lowerneck upperneck
    upperneck head
    lclavicle lhumerus
    lhumerus lradius
    lradius lwrist
    lwrist lhand lthumb
    lhand lfingers
    rclavicle rhumerus
    rhumerus rradius
    rradius rwrist
    rwrist rhand rthumb
    rhand rfingers
  end

#!OML:ASF C:\Documents and Settings\Administrator\Desktop\New Folder (2)\VR_Jason.ASF
:FULLY-SPECIFIED
:DEGREES
957
root -1.94515 18.0638 -0.0665451 11.8331 -1.60903 14.8869
lowerback -19.0285 0.708128 -2.20983
upperback 7.71349 2.04107 -2.50026
thorax 20.0692 0.853224 -1.00515
lowerneck 19.3386 -4.2687 -8.88064
upperneck 0.643818 -7.00758 10.6727
head -2.17665 -3.95743 5.20835
rclavicle -8.74653e-015 6.20208e-014
rhumerus 11.2059 -35.7692 -57.6136
rradius 85.0282
rwrist -32.5188
rhand 8.75511 13.3513
rfingers 7.12502
rthumb 33.9447 -13.4447
lclavicle -8.74653e-015 6.20208e-014
lhumerus 32.7407 5.5384 54.2508
lradius 71.1919
lwrist 43.0188
lhand -5.6757 32.6557
lfingers 7.12502
lthumb 20.1441 61.6313
rfemur -22.4502 -6.99939 11.8708
rtibia 25.6269
rfoot -15.2975 -18.7201
rtoes -10.0182
lfemur -76.6804 -3.31374 -1.46412
ltibia 39.1976
lfoot 9.5576 -5.25866
ltoes -37.4082
958
root -1.92325 18.0801 -0.059847 11.7826 -1.72036 15.2649
lowerback -18.9479 0.701548 -2.18007
upperback 7.76573 2.02656 -2.52209
thorax 20.0869 0.853356 -1.05488
lowerneck 19.1286 -4.33355 -8.86551
upperneck 0.662918 -7.07529 10.7269
head -2.13205 -3.98844 5.21788
rclavicle -1.07344e-014 -7.95139e-015
rhumerus 10.9211 -35.9086 -57.4106
rradius 84.7385
rwrist -32.2345
rhand 8.7102 13.658
rfingers 7.12502
rthumb 33.902 -13.1474
lclavicle -1.07344e-014 -7.95139e-015
lhumerus 33.0494 5.92392 54.3073
lradius 71.1857
lwrist 43.1391
lhand -5.62161 32.4437
lfingers 7.12502
lthumb 20.1961 61.4138
rfemur -22.1231 -6.27537 11.2329
rtibia 25.246
rfoot -15.0448 -18.6926
rtoes -9.08604
lfemur -76.2922 -3.21663 -0.225464
ltibia 39.6497
lfoot 9.5576 -5.25866
ltoes -37.4082
959
root -1.89769 18.0908 -0.0527065 11.7516 -1.8007 15.6991
lowerback -18.9161 0.6768 -2.18779
upperback 7.79914 2.00188 -2.56048
thorax 20.1118 0.845878 -1.10619
lowerneck 19.135 -4.36979 -8.79219
upperneck 0.585121 -7.1045 10.675
head -2.15731 -4.00062 5.19321
rclavicle -1.07344e-014 1.59028e-015
rhumerus 10.5127 -36.0546 -57.0253
rradius 84.5502
rwrist -32.3552
rhand 8.88129 13.7992
rfingers 7.12502
rthumb 34.0645 -12.9703
lclavicle -1.07344e-014 1.59028e-015
lhumerus 33.2073 6.16598 54.2538
lradius 71.4175
lwrist 43.441
lhand -5.94893 32.2136
lfingers 7.12502
lthumb 19.8814 61.2167
rfemur -21.941 -5.82734 10.5485
rtibia 25.071
rfoot -14.8908 -18.4767
rtoes -7.84436
lfemur -76.0099 -3.10117 0.638334
ltibia 40.4927
lfoot 9.5576 -5.25866
ltoes -37.4082
960
root -1.87195 18.0909 -0.0376819 11.7352 -1.87769 16.2137
lowerback -18.999 0.637572 -2.33417
upperback 7.84464 2.01222 -2.65597
thorax 20.229 0.840788 -1.13477
lowerneck 19.2212 -4.41077 -8.72214
upperneck 0.487034 -7.1379 10.7659
head -2.19646 -4.02354 5.21796
rclavicle 8.74653e-015 2.22639e-014
rhumerus 10.0805 -36.2557 -56.724
rradius 84.5215
rwrist -32.4557
rhand 8.9815 13.6241
rfingers 7.12502
rthumb 34.1597 -13.1241
lclavicle 8.74653e-015 2.22639e-014
lhumerus 33.614 6.30771 54.2322
lradius 71.6328
lwrist 43.7568
lhand -6.5408 32.532
lfingers 7.12502
lthumb 19.3124 61.593
rfemur -21.8626 -5.60306 9.79721
rtibia 25.0443
rfoot -14.904 -18.3482
rtoes -6.60249
lfemur -75.8463 -2.99992 1.19087
ltibia 41.7583
lfoot 9.5576 -5.25866
ltoes -37.4082
961
root -1.85148 18.0861 -0.0255301 11.6955 -1.86555 16.5713
lowerback -18.87 0.612608 -2.43407
upperback 7.8342 2.00857 -2.70817
thorax 20.1284 0.832473 -1.1421
lowerneck 19.1161 -4.47182 -8.66413
upperneck 0.682145 -7.20319 10.9205
head -2.11371 -4.05961 5.25215
rclavicle -4.37326e-015 9.54166e-015
rhumerus 9.53843 -36.481 -56.3591
rradius 84.5992
rwrist -32.7034
rhand 9.01669 13.4159
rfingers 7.12502
rthumb 34.1931 -13.3248
lclavicle -4.37326e-015 9.54166e-015
lhumerus 34.0226 6.30485 54.3546
lradius 72.006
lwrist 43.8487
lhand -7.00861 33.3138
lfingers 7.12502
lthumb 18.8625 62.4192
rfemur -21.7986 -5.45982 9.29648
rtibia 25.0865
rfoot -15.1871 -18.5692
rtoes -6.6393
lfemur -75.7595 -3.02552 1.89104
ltibia 43.4079
lfoot 9.5576 -5.25866
ltoes -37.4082
962
root -1.83788 18.0854 -0.0167773 11.682 -1.79221 16.8066
lowerback -18.7155 0.588232 -2.55464
upperback 7.80863 1.99402 -2.67902
thorax 19.9853 0.80836 -1.0437
lowerneck 18.9796 -4.53265 -8.64886
upperneck 0.882638 -7.27526 11.1166
head -2.02141 -4.09967 5.30507
rclavicle -2.38542e-014 -4.77083e-015
rhumerus 9.32359 -36.8197 -56.1477
rradius 84.5449
rwrist -32.9941
rhand 8.88467 13.3987
rfingers 7.12502
rthumb 34.0677 -13.37
lclavicle -2.38542e-014 -4.77083e-015
lhumerus 34.1294 6.18969 54.4521
lradius 72.8623
lwrist 43.9233
lhand -7.30617 34.111
lfingers 7.12502
lthumb 18.5763 63.244
rfemur -21.7346 -5.28357 8.96803
rtibia 25.0531
rfoot -14.8767 -18.847
rtoes -5.99706
lfemur -75.7238 -3.07779 2.56071
ltibia 45.3736
lfoot 9.5576 -5.25866
ltoes -37.4082
963
root -1.82675 18.0891 -0.00259621 11.6691 -1.77167 17.0766
lowerback -18.8767 0.549894 -2.80768
upperback 7.86169 2.01479 -2.63937
thorax 20.154 0.778507 -0.846181
lowerneck 18.8328 -4.57814 -8.59631
upperneck 1.0622 -7.32096 11.2356
head -1.93996 -4.12257 5.32649
rclavicle -1.11319e-014 -2.70347e-014
rhumerus 9.73633 -37.2697 -56.3764
rradius 84.2613
rwrist -33.0467
rhand 8.76327 13.3725
rfingers 7.12502
rthumb 33.9524 -13.4218
lclavicle -1.11319e-014 -2.70347e-014
lhumerus 34.2555 6.11867 54.5684
lradius 73.6035
lwrist 43.9521
lhand -7.58976 34.273
lfingers 7.12502
lthumb 18.3035 63.4318
rfemur -21.6373 -4.942 8.58207
rtibia 24.9774
rfoot -14.4322 -19.1222
rtoes -5.69003
lfemur -75.7073 -3.0514 2.88492
ltibia 47.695
lfoot 9.5576 -5.25866
ltoes -37.4082
964
root -1.82209 18.104 0.00680007 11.6551 -1.75102 17.148
lowerback -18.9493 0.53363 -2.86801
upperback 8.15445 2.03249 -2.67192
thorax 19.9904 0.742292 -0.674878
lowerneck 18.8283 -4.62388 -8.52135
upperneck 1.14792 -7.36437 11.3671
head -1.90854 -4.14873 5.35589
rclavicle -1.66979e-014 -2.70347e-014
rhumerus 9.82844 -37.5772 -56.5217
rradius 84.2798
rwrist -33.0261
rhand 8.74369 13.2037
rfingers 7.12502
rthumb 33.9338 -13.5947
lclavicle -1.66979e-014 -2.70347e-014
lhumerus 34.617 6.08814 54.8113
lradius 73.8961
lwrist 43.7538
lhand -7.60086 34.0359
lfingers 7.12502
lthumb 18.2929 63.1958
rfemur -21.4099 -4.23963 8.43879
rtibia 24.709
rfoot -14.7842 -19.9111
rtoes -7.95109
lfemur -75.7734 -2.95641 3.23253
ltibia 50.4332
lfoot 9.5576 -5.25866
ltoes -37.4082
965
root -1.81714 18.107 0.0138163 11.5922 -1.68536 17.0091
lowerback -18.8906 0.50251 -2.90059
upperback 7.956 1.95155 -2.48036
thorax 20.2779 0.720768 -0.627539
lowerneck 18.9216 -4.65122 -8.6633
upperneck 1.06914 -7.41551 11.7798
head -1.92488 -4.19526 5.51675
rclavicle 1.51076e-014 -2.22639e-014
rhumerus 9.44209 -37.7029 -56.3991
rradius 84.5931
rwrist -33.0496
rhand 8.52054 13.136
rfingers 7.12502
rthumb 33.7218 -13.7091
lclavicle 1.51076e-014 -2.22639e-014
lhumerus 35.0131 6.05197 54.9765
lradius 74.1841
lwrist 43.4687
lhand -7.41194 33.8747
lfingers 7.12502
lthumb 18.4746 63.0174
rfemur -21.1859 -3.38445 8.55335
rtibia 24.5628
rfoot -15.2725 -20.8243
rtoes -10.2302
lfemur -75.878 -2.84012 3.66945
ltibia 53.4689
lfoot 9.5576 -5.25866
ltoes -37.4082
966
root -1.78871 18.126 0.05343 11.6044 -1.75347 17.2106
lowerback -19.2402 0.527077 -2.71546
upperback 8.27867 2.00767 -2.69857
thorax 20.3384 0.749725 -0.797742
lowerneck 19.0289 -4.7016 -8.79369
upperneck 0.979493 -7.49638 12.1443
head -1.94468 -4.25518 5.66307
rclavicle -9.54166e-015 9.54166e-015
rhumerus 9.22339 -37.8449 -56.363
rradius 84.8208
rwrist -33.2179
rhand 8.51172 13.0765
rfingers 7.12502
rthumb 33.7134 -13.7705
lclavicle -9.54166e-015 9.54166e-015
lhumerus 35.2719 5.93369 54.9519
lradius 74.6115
lwrist 43.2786
lhand -7.20109 33.8549
lfingers 7.12502
lthumb 18.6774 62.9782
rfemur -20.8934 -3.76442 8.20334
rtibia 24.241
rfoot -15.0287 -20.4649
rtoes -12.8401
lfemur -76.1648 -2.99018 3.41596
ltibia 57.1059
lfoot 9.5576 -5.25866
ltoes -37.4082
967
root -1.79658 18.1147 0.0228049 11.5858 -1.56623 16.9909
lowerback -18.4683 0.428528 -2.96836
upperback 7.85438 1.83907 -2.47065
thorax 19.8578 0.667006 -0.616561
lowerneck 19.3394 -4.72654 -8.86715
upperneck 0.90308 -7.55091 12.3084
head -2.0006 -4.29862 5.74405
rclavicle -1.03368e-014 -6.52014e-014
rhumerus 9.13411 -37.9595 -56.3162
rradius 84.9165
rwrist -33.3421
rhand 8.90708 12.9309
rfingers 7.12502
rthumb 34.089 -13.833
lclavicle -1.03368e-014 -6.52014e-014
lhumerus 35.2802 5.71306 54.8257
lradius 75.0417
lwrist 43.1457
lhand -6.83928 33.9687
lfingers 7.12502
lthumb 19.0254 63.0582
rfemur -20.8595 -2.39182 8.4234
rtibia 24.0969
rfoot -14.54 -21.7814
rtoes -14.1459
lfemur -76.5764 -2.60033 3.44023
ltibia 60.7244
lfoot 9.5576 -5.25866
ltoes -37.4082
968
root -1.75783 18.1383 0.0809667 11.7499 -1.77543 17.1831
lowerback -19.3542 0.517098 -2.6469
upperback 8.11164 1.98121 -2.74927
thorax 20.1978 0.753534 -0.900931
lowerneck 19.3253 -4.78962 -8.76909
upperneck 1.06086 -7.62664 12.1998
head -1.94929 -4.32931 5.69286
rclavicle -1.27222e-014 -3.49861e-014
rhumerus 9.10155 -38.0763 -56.2723
rradius 85.0239
rwrist -33.435
rhand 9.13526 12.8627
rfingers 7.12502
rthumb 34.3057 -13.8527
lclavicle -1.27222e-014 -3.49861e-014
lhumerus 35.1859 5.396 54.5706
lradius 75.2123
lwrist 43.3408
lhand -7.02531 33.806
lfingers 7.12502
lthumb 18.8465 62.913
rfemur -20.7695 -3.25961 8.03088
rtibia 23.9269
rfoot -14.126 -20.8094
rtoes -14.9453
lfemur -77.2033 -2.71071 2.81472
ltibia 64.8831
lfoot 9.5576 -5.25866
ltoes -37.4082
969
root -1.74848 18.137 0.0858845 11.7637 -1.76449 17.0625
lowerback -19.2297 0.517343 -2.668
upperback 8.10756 1.98012 -2.74532
thorax 20.1148 0.751048 -0.886279
lowerneck 18.9639 -4.88017 -8.61212
upperneck 1.4038 -7.72161 12.0416
head -1.79283 -4.35636 5.59851
rclavicle 1.59028e-014 3.49861e-014
rhumerus 8.9981 -38.1743 -56.095
rradius 85.169
rwrist -33.666
rhand 8.92108 13.0449
rfingers 7.12502
rthumb 34.1023 -13.7161
lclavicle 1.59028e-014 3.49861e-014
lhumerus 35.3538 5.18057 54.3366
lradius 75.4403
lwrist 43.6756
lhand -6.95549 33.5019
lfingers 7.12502
lthumb 18.9136 62.6024
rfemur -20.7731 -2.7391 8.10275
rtibia 23.9358
rfoot -14.1532 -21.0959
rtoes -12.163
lfemur -77.6615 -2.39434 2.35508
ltibia 68.8657
lfoot 9.5576 -5.25866
ltoes -37.4082
